<?xml version="1.0" encoding="UTF-8" standalone="no" ?>
<!DOCTYPE svg PUBLIC "-//W3C//DTD SVG 1.1//EN" "http://www.w3.org/Graphics/SVG/1.1/DTD/svg11.dtd">
<svg xmlns="http://www.w3.org/2000/svg" xmlns:xlink="http://www.w3.org/1999/xlink" version="1.1" width="1080" height="1080" viewBox="0 0 1080 1080" xml:space="preserve">
<desc>Created with Fabric.js 5.2.4</desc>
<defs>
</defs>
<rect x="0" y="0" width="100%" height="100%" fill="transparent"></rect>
<g transform="matrix(1 0 0 1 540 540)" id="deb1dff4-2674-4a75-b7f4-64d3b247c3b0"  >
<rect style="stroke: none; stroke-width: 1; stroke-dasharray: none; stroke-linecap: butt; stroke-dashoffset: 0; stroke-linejoin: miter; stroke-miterlimit: 4; fill: rgb(0,0,0); fill-rule: nonzero; opacity: 1;" vector-effect="non-scaling-stroke"  x="-540" y="-540" rx="0" ry="0" width="1080" height="1080" />
</g>
<g transform="matrix(1 0 0 1 540 540)" id="79641efe-f8c6-4427-9318-bf63164477c6"  >
</g>
<g transform="matrix(67.19 0 0 67.19 540 540)" id="f24b547e-385b-4da2-95c0-02902c0d08f8"  >
<path style="stroke: rgb(255,255,255); stroke-width: 0; stroke-dasharray: none; stroke-linecap: butt; stroke-dashoffset: 0; stroke-linejoin: miter; stroke-miterlimit: 4; fill: rgb(255,255,255); fill-rule: nonzero; opacity: 1;" vector-effect="non-scaling-stroke"  transform=" translate(-8, -8)" d="M 0 1.146 C 0 0.513 0.526 0 1.175 0 L 14.825000000000001 0 C 15.474 0 16 0.513 16 1.146 L 16 14.854 C 16 15.486999999999998 15.474 16 14.825 16 L 1.175 16 C 0.526 16 0 15.487 0 14.854 z M 4.943 13.393999999999998 L 4.943 6.169 L 2.542 6.169 L 2.542 13.393999999999998 z M 3.7429999999999994 5.181999999999999 C 4.579999999999999 5.181999999999999 5.100999999999999 4.627999999999998 5.100999999999999 3.9339999999999984 C 5.085999999999999 3.2249999999999983 4.5809999999999995 2.685999999999998 3.758999999999999 2.685999999999998 C 2.9369999999999985 2.685999999999998 2.4 3.226 2.4 3.934 C 2.4 4.628 2.921 5.182 3.727 5.182 z M 8.651 13.393999999999998 L 8.651 9.359 C 8.651 9.143 8.667 8.927 8.731 8.773 C 8.904 8.342 9.299 7.895 9.963 7.895 C 10.831999999999999 7.895 11.178999999999998 8.557 11.178999999999998 9.529 L 11.178999999999998 13.394 L 13.579999999999998 13.394 L 13.579999999999998 9.25 C 13.579999999999998 7.029999999999999 12.395999999999999 5.998 10.815999999999999 5.998 C 9.541999999999998 5.998 8.970999999999998 6.698 8.651 7.191000000000001 L 8.651 7.216000000000001 L 8.635 7.216000000000001 L 8.651 7.191000000000001 L 8.651 6.169 L 6.2509999999999994 6.169 C 6.281 6.8469999999999995 6.2509999999999994 13.393999999999998 6.2509999999999994 13.393999999999998 z" stroke-linecap="round" />
</g>
</svg>